<?xml version="1.0" encoding="utf-8"?>
<!-- Generator: Adobe Illustrator 24.3.0, SVG Export Plug-In . SVG Version: 6.00 Build 0)  -->
<svg version="1.1" id="Layer_1" xmlns="http://www.w3.org/2000/svg" xmlns:xlink="http://www.w3.org/1999/xlink" x="0px" y="0px"
	 viewBox="0 0 640 512" style="enable-background:new 0 0 640 512;" xml:space="preserve">
<style type="text/css">
	.st0{fill:#C18C80;}
	.st1{fill:#C24D2C;}
</style>
<path class="st0" d="M160,181.4c-0.1-2.4-0.2-4.8-0.2-7.2C159.8,96.2,223,33,301,33c52.3,0,98,28.4,122.4,70.8
	c13.4-9.8,29.7-14.3,47.1-14.3c46.8,0,84.7,37.2,84.7,84.7c0,10.8-2,21-5.6,30.5c51.6,10.4,90.4,56.1,90.4,110.7
	c0,62.4-50.6,113-113,113H202.2C132,428.5,75,371.5,75,301.4C75,245.9,110.5,198.8,160,181.4z"/>
<path class="st1" d="M84.9,209.6c-0.1-2.4-0.2-4.8-0.2-7.2c0-78,63.2-141.2,141.2-141.2c52.3,0,98,28.4,122.4,70.8
	c13.4-9.8,29.7-14.3,47.1-14.3c46.8,0,84.7,37.2,84.7,84.7c0,10.8-2,21-5.6,30.5c51.6,10.4,90.4,56.1,90.4,110.7
	c0,62.4-50.6,113-113,113H127.1C56.9,456.7,0,399.8,0,329.6C0,274.2,35.5,227,84.9,209.6z"/>
</svg>
