<?xml version="1.0" encoding="utf-8"?>
<!-- Generator: Adobe Illustrator 24.3.0, SVG Export Plug-In . SVG Version: 6.00 Build 0)  -->
<svg version="1.1" id="Layer_1" xmlns="http://www.w3.org/2000/svg" xmlns:xlink="http://www.w3.org/1999/xlink" x="0px" y="0px"
	 viewBox="0 0 640 512" style="enable-background:new 0 0 640 512;" xml:space="preserve">
<style type="text/css">
	.st0{fill:#C24D2C;}
</style>
<path class="st0" d="M255.7,139.1C244.8,125.5,227.6,116,208,116c-33.1,0-60,26.9-60,59.1c0,25.6,16.1,47.2,38.6,55.9
	c10.6-11.7,23.9-22.1,39.3-29.9C229.1,178.5,240.6,157.3,255.7,139.1z M120,175.1c0-48.6,39.4-87.1,88-87.1
	c27.8,0,52.3,13.1,68.4,33.3C297.7,105.6,323.6,96,352,96c0,0,0,0,0,0l-51.6-12.4L286.9,8.6c-1-5.3-5.6-8.6-10.4-8.6
	c-2,0-4.1,0.6-6,1.9L208,45.3L145.4,1.9c-1.8-1.3-3.9-1.9-5.9-1.9c-4.8,0-9.4,3.3-10.4,8.6l-13.5,74.9l-75,13.5
	c-5.3,1-8.6,5.5-8.6,10.4c0,2,0.6,4.1,1.9,6L77.3,176l-43.4,62.6c-1.3,1.8-1.9,3.9-1.9,5.9c0,4.8,3.3,9.4,8.6,10.4l74.9,13.5
	l13.5,75c1,5.3,5.5,8.6,10.4,8.6c2,0,4.1-0.6,6-1.9l19.5-13.5c-3.2-10.3-4.9-21.3-4.9-32.6c0-17.2,4-33.6,11.1-48.3
	C141,241.7,120,211.4,120,175.1z M542.5,225.5c-6.9-37.2-39.2-65.5-78.5-65.5c-12.2,0-23.9,3-34.2,8c-17.5-24.1-45.6-40-77.8-40
	c-53,0-96,43-96,96c0,0.5,0.2,1.1,0.2,1.6c-36.6,6.5-65.1,39.6-65.1,77.5c0,44.2,35.8,80,80,80h256c45.1,0,80.9-34.9,80.9-80
	C608,264.7,579.7,232.2,542.5,225.5z M552,415.1c-7.8,0-15.3,3.8-20,10.7l-32,48c-2.7,4.1-4,8.7-4,13.3c0,14.3,10.9,24.9,24,24.9
	c7.8,0,15.4-3.8,20-10.7l32-48c2.7-4.1,4-8.7,4-13.3C576,426.6,565.1,415.1,552,415.1z M456,415.1c-7.8,0-15.3,3.8-20,10.7l-32,48
	c-2.7,4.1-4,8.7-4,13.3c0,14.3,10.9,24.9,23.1,24.9c7.8,0,15.4-3.8,20-10.7l32-48c2.7-4.1,4-8.7,4-13.3
	C480,426.6,469.1,415.1,456,415.1z M360,415.1c-7.8,0-15.3,3.8-20,10.7l-32,48c-2.7,4.1-4,8.7-4,13.3c0,14.3,10.9,24.9,23.1,24.9
	c7.8,0,15.4-3.8,20-10.7l32-48c2.7-4.1,4-8.7,4-13.3C384,426.6,373.1,415.1,360,415.1z M264,415.1c-7.8,0-15.4,3.8-20,10.7l-32,48
	c-2.7,4.1-4,8.7-4,13.3c0,14.3,10.9,24.9,23.1,24.9c7.8,0,15.4-3.8,20-10.7l32-48c2.7-4.1,4-8.7,4-13.3
	C288,426.6,277.1,415.1,264,415.1z"/>
</svg>
