<?xml version="1.0" encoding="utf-8"?>
<!-- Generator: Adobe Illustrator 24.3.0, SVG Export Plug-In . SVG Version: 6.00 Build 0)  -->
<svg version="1.1" id="Layer_1" xmlns="http://www.w3.org/2000/svg" xmlns:xlink="http://www.w3.org/1999/xlink" x="0px" y="0px"
	 viewBox="0 0 512 512" style="enable-background:new 0 0 512 512;" xml:space="preserve">
<style type="text/css">
	.st0{fill:#C24D2C;}
</style>
<path class="st0" d="M352,351.1h-71.2l47.4-105.4c3.1-6.8,1-14.8-4.9-19.3c-6-4.5-14.2-4.3-19.9,0.5l-153.6,128
	c-5.2,4.3-7.1,11.4-4.8,17.7c2.3,6.3,8.3,10.6,15,10.6h71.2l-47.4,105.4c-3.1,6.8-1,14.8,4.9,19.3c2.9,3.1,5.4,4.2,9.7,4.2
	c3.7,0,7.3-1.2,10.2-3.7l153.6-128c5.2-4.3,7.1-11.4,4.8-17.7C364.8,356.2,358.8,351.1,352,351.1z M416,128c-0.6,0-1.1,0.2-1.6,0.2
	c1.1-5.2,1.6-10.7,1.6-16.2c0-44.2-35.7-80-80-80c-24.6,0-46.2,11.2-61,28.8C256.4,24.8,219.3,0,176,0C114.1,0,64,50.1,64,112
	c0,7.2,0.8,14.2,2.1,21.2C27.8,145.8,0,181.5,0,224c0,53,43,96,96,96h46.6l140.2-116.8c8.6-7.2,19.5-11.2,30.8-11.2
	c10.3,0,20.6,3.4,29,9.7c18,13.6,24,37.4,14.8,58L330.2,320H416c53,0,96-43,96-96S469,128,416,128z"/>
</svg>
