<?xml version="1.0" encoding="utf-8"?>
<!-- Generator: Adobe Illustrator 24.3.0, SVG Export Plug-In . SVG Version: 6.00 Build 0)  -->
<svg version="1.1" id="Layer_1" xmlns="http://www.w3.org/2000/svg" xmlns:xlink="http://www.w3.org/1999/xlink" x="0px" y="0px"
	 viewBox="0 0 640 512" style="enable-background:new 0 0 640 512;" xml:space="preserve">
<style type="text/css">
	.st0{fill:#FFFFFF;}
</style>
<path class="st0" d="M96,208c0-61.9,50.1-111.1,111.1-111.1c52.6,0,96.5,36.5,108.5,85.4c19.1-9.2,39.1-14.3,59.5-14.3
	c4.6,0,9.2,0.4,13.7,0.8l24.1-34.8c5.1-7.4,0.9-17.7-8-19.3l-87.7-16l-16-88.6c-1.6-8.9-11.8-13.1-19.3-8L208,53.5L134.1,2.2
	c-7.5-5.1-17.7-0.9-19.3,8l-16,88.6l-88.6,16c-8.9,1.6-13.1,11.9-8,19.3L53.5,208L2.2,281.9c-5.1,7.4-0.9,17.7,8,19.3l88.6,16
	l16,88.6c1.6,8.9,11.9,13.1,19.3,8l10.7-7.4c2.7-35.1,19.9-66.5,45.8-88.1C137.1,309.8,96,263.9,96,208z M128,208
	c0,44.2,35.8,80,80,80c9.7,0,18.9-2,27.6-5.2c7-33.6,25.5-62.9,51.6-83.4c-4.3-40.1-37.9-71.4-79.1-71.4
	C163.8,128,128,163.8,128,208z M575.2,325.6c0.1-2,0.7-3.7,0.7-5.6c0-35.4-28.8-64-63.1-64c-12.6,0-24.2,3.7-34.1,10
	c-17.6-38.9-56.5-65.1-101.9-65.1c-61.8,0-112,50.1-112,111.1c0,3,0.8,5.7,0.9,8.6c-49.6,3.8-88.9,44.7-88.9,95.4
	c-1.7,53,41.3,96,94.3,96h272c53,0,96-43,96-96C639.1,373.9,612.7,338.6,575.2,325.6z"/>
</svg>
