<?xml version="1.0" encoding="utf-8"?>
<!-- Generator: Adobe Illustrator 24.3.0, SVG Export Plug-In . SVG Version: 6.00 Build 0)  -->
<svg version="1.1" id="Layer_1" xmlns="http://www.w3.org/2000/svg" xmlns:xlink="http://www.w3.org/1999/xlink" x="0px" y="0px"
	 viewBox="0 0 640 512" style="enable-background:new 0 0 640 512;" xml:space="preserve">
<style type="text/css">
	.st0{fill:#FFFFFF;}
</style>
<path class="st0" d="M96.2,200.1c-0.1-2.7-0.2-5.4-0.2-8.1c0-88.4,71.6-160,160-160c59.3,0,111,32.2,138.7,80.2
	C409.9,101.1,428.3,96,448,96c53,0,96,42.1,96,96c0,12.2-2.3,23.8-6.4,34.6C596,238.4,640,290.1,640,352c0,70.7-57.3,128-128,128
	H144C64.5,480,0,415.5,0,336C0,273.2,40.2,219.8,96.2,200.1z"/>
</svg>
