<?xml version="1.0" encoding="utf-8"?>
<!-- Generator: Adobe Illustrator 24.3.0, SVG Export Plug-In . SVG Version: 6.00 Build 0)  -->
<svg version="1.1" id="Layer_1" xmlns="http://www.w3.org/2000/svg" xmlns:xlink="http://www.w3.org/1999/xlink" x="0px" y="0px"
	 viewBox="0 0 512 512" style="enable-background:new 0 0 512 512;" xml:space="preserve">
<style type="text/css">
	.st0{fill:#FFFFFF;}
</style>
<path class="st0" d="M416,128c-0.6,0-1.1,0.2-1.6,0.2c1.1-5.2,1.6-10.7,1.6-16.2c0-44.2-35.8-80-79.1-80
	c-24.6,0-46.2,11.2-60.1,28.8C256.4,24.8,219.3,0,176,0C114.3,0,64,50.1,64,112c0,7.2,0.8,14.2,2.1,21.2C27.8,145.8,0,181.5,0,224
	c0,53,42.1,96,95.1,96h319.1c54.8,0,97.8-43,97.8-96S469,128,416,128z M198.8,353.9c-12.2-5.2-26.3,0.4-31.5,12.6l-47.1,112
	c-5.2,12.2,0.4,26.3,12.6,31.5c1.3,1.4,5.4,2,8.5,2c9.3,0,18.2-5.4,22.1-14.5l47.1-112C216.6,373.3,210.1,359.2,198.8,353.9z
	 M81.5,353.9c-12.2-5.2-26.3,0.4-31.5,12.6l-47.1,112c-6.1,12.2-0.5,26.3,11.7,31.6c3.1,1.3,6.3,1.9,9.4,1.9
	c9.3,0,18.2-5.4,22.1-14.5l47.1-112C99.3,373.3,93.6,359.2,81.5,353.9z M316.1,353.9c-12.2-5.2-26.3,0.4-31.5,12.6l-47.1,112
	c-5.2,12.2,0.4,26.3,12.6,31.5c2.2,1.4,5.4,2,8.6,2c9.3,0,18.2-5.4,22.1-14.5l47.1-112C333.1,373.3,328.3,359.2,316.1,353.9z
	 M433.5,353.9c-12.2-5.2-26.3,0.4-31.5,12.6l-47.1,112c-5.2,12.2,0.4,26.3,12.6,31.5c2.1,1.4,5.3,2,7.6,2c9.3,0,18.2-5.4,22.1-14.5
	l47.1-112C451.3,373.3,445.6,359.2,433.5,353.9z"/>
</svg>
